<svg width="111" height="16" viewBox="0 0 111 16" fill="none" xmlns="http://www.w3.org/2000/svg">
<path d="M7.72288 16C6.26366 16 4.94209 15.6806 3.75819 15.0417C2.58806 14.3889 1.66572 13.4931 0.991172 12.3542C0.330391 11.2153 0 9.9306 0 8.50004C0 7.06948 0.337274 5.78476 1.01182 4.64587C1.68637 3.50699 2.60871 2.6181 3.77884 1.97921C4.96274 1.32643 6.28431 1.00004 7.74353 1.00004C8.92743 1.00004 10.0081 1.20837 10.9855 1.62504C11.9629 2.04171 12.7889 2.64587 13.4634 3.43754L11.7289 5.08337C10.6826 3.94449 9.39549 3.37504 7.86743 3.37504C6.87626 3.37504 5.98833 3.59726 5.20365 4.04171C4.41898 4.47226 3.80638 5.07643 3.36586 5.85421C2.92533 6.63198 2.70507 7.51393 2.70507 8.50004C2.70507 9.48615 2.92533 10.3681 3.36586 11.1459C3.80638 11.9237 4.41898 12.5348 5.20365 12.9792C5.98833 13.4098 6.87626 13.625 7.86743 13.625C9.39549 13.625 10.6826 13.0487 11.7289 11.8959L13.4634 13.5625C12.7889 14.3542 11.956 14.9584 10.9648 15.375C9.98744 15.7917 8.90678 16 7.72288 16Z" fill="#363636"/>
<path d="M15.7878 0.333374H18.3689V15.7917H15.7878V0.333374Z" fill="#363636"/>
<path d="M32.1228 10.2917C32.1228 10.4723 32.109 10.7292 32.0815 11.0625H23.4294C23.5808 11.882 23.9731 12.5348 24.6064 13.0209C25.2534 13.4931 26.0518 13.7292 27.0017 13.7292C28.2131 13.7292 29.2112 13.3264 29.9959 12.5209L31.3794 14.125C30.8838 14.7223 30.2574 15.1737 29.5003 15.4792C28.7431 15.7848 27.8896 15.9375 26.9398 15.9375C25.7283 15.9375 24.6614 15.6945 23.7391 15.2084C22.8168 14.7223 22.1009 14.0487 21.5916 13.1875C21.096 12.3125 20.8482 11.3264 20.8482 10.2292C20.8482 9.14587 21.0891 8.17365 21.5709 7.31254C22.0665 6.43754 22.7479 5.75699 23.6152 5.27087C24.4825 4.78476 25.4599 4.54171 26.5474 4.54171C27.6212 4.54171 28.5779 4.78476 29.4177 5.27087C30.2712 5.7431 30.932 6.41671 31.4 7.29171C31.8818 8.15282 32.1228 9.15282 32.1228 10.2917ZM26.5474 6.62504C25.7214 6.62504 25.0194 6.87504 24.4412 7.37504C23.8768 7.86115 23.5326 8.51393 23.4087 9.33337H29.6655C29.5553 8.52782 29.2181 7.87504 28.6537 7.37504C28.0892 6.87504 27.3872 6.62504 26.5474 6.62504Z" fill="#363636"/>
<path d="M44.7252 4.66671L39.9965 15.7917H37.3327L32.604 4.66671H35.2884L38.7162 12.9167L42.2473 4.66671H44.7252Z" fill="#363636"/>
<path d="M56.402 10.2917C56.402 10.4723 56.3882 10.7292 56.3607 11.0625H47.7086C47.86 11.882 48.2523 12.5348 48.8856 13.0209C49.5326 13.4931 50.331 13.7292 51.2809 13.7292C52.4923 13.7292 53.4904 13.3264 54.2751 12.5209L55.6586 14.125C55.163 14.7223 54.5366 15.1737 53.7795 15.4792C53.0223 15.7848 52.1688 15.9375 51.219 15.9375C50.0075 15.9375 48.9406 15.6945 48.0183 15.2084C47.096 14.7223 46.3801 14.0487 45.8708 13.1875C45.3752 12.3125 45.1274 11.3264 45.1274 10.2292C45.1274 9.14587 45.3683 8.17365 45.8501 7.31254C46.3457 6.43754 47.0271 5.75699 47.8944 5.27087C48.7617 4.78476 49.7391 4.54171 50.8266 4.54171C51.9004 4.54171 52.8571 4.78476 53.6969 5.27087C54.5504 5.7431 55.2112 6.41671 55.6792 7.29171C56.161 8.15282 56.402 9.15282 56.402 10.2917ZM50.8266 6.62504C50.0006 6.62504 49.2986 6.87504 48.7204 7.37504C48.156 7.86115 47.8118 8.51393 47.6879 9.33337H53.9447C53.8345 8.52782 53.4973 7.87504 52.9329 7.37504C52.3684 6.87504 51.6664 6.62504 50.8266 6.62504Z" fill="#363636"/>
<path d="M61.3386 6.29171C62.082 5.12504 63.3898 4.54171 65.262 4.54171V7.02087C65.0418 6.97921 64.8421 6.95837 64.6632 6.95837C63.6582 6.95837 62.8736 7.25698 62.3092 7.85421C61.7447 8.43754 61.4625 9.28476 61.4625 10.3959V15.7917H58.8813V4.66671H61.3386V6.29171Z" fill="#363636"/>
<path d="M67.4517 0.333374H70.0328V15.7917H67.4517V0.333374Z" fill="#363636"/>
<path d="M77.6331 4.54171C79.2575 4.54171 80.4965 4.93754 81.35 5.72921C82.2173 6.50699 82.6509 7.68754 82.6509 9.27087V15.7917H80.2143V14.4375C79.8977 14.9237 79.4434 15.2987 78.8514 15.5625C78.2732 15.8125 77.5712 15.9375 76.7452 15.9375C75.9192 15.9375 75.1965 15.7987 74.577 15.5209C73.9575 15.2292 73.4757 14.8334 73.1315 14.3334C72.8012 13.8195 72.636 13.2431 72.636 12.6042C72.636 11.6042 73.0008 10.8056 73.7304 10.2084C74.4738 9.59726 75.637 9.29171 77.2201 9.29171H80.0697V9.12504C80.0697 8.34726 79.8357 7.75004 79.3677 7.33337C78.9134 6.91671 78.2319 6.70837 77.3234 6.70837C76.7039 6.70837 76.0913 6.8056 75.4856 7.00004C74.8936 7.19448 74.3912 7.46532 73.9782 7.81254L72.9663 5.91671C73.5445 5.47226 74.2397 5.13198 75.0519 4.89587C75.8642 4.65976 76.7245 4.54171 77.6331 4.54171ZM77.2821 14.0417C77.9291 14.0417 78.5004 13.8959 78.996 13.6042C79.5053 13.2987 79.8633 12.8681 80.0697 12.3125V11.0209H77.406C75.9192 11.0209 75.1758 11.5139 75.1758 12.5C75.1758 12.9723 75.3617 13.3473 75.7334 13.625C76.1051 13.9028 76.6213 14.0417 77.2821 14.0417Z" fill="#363636"/>
<path d="M92.2203 4.54171C93.6107 4.54171 94.7258 4.95143 95.5655 5.77087C96.4053 6.59032 96.8251 7.8056 96.8251 9.41671V15.7917H94.244V9.75004C94.244 8.77782 94.0168 8.04865 93.5625 7.56254C93.1082 7.06254 92.4612 6.81254 91.6215 6.81254C90.6716 6.81254 89.9213 7.10421 89.3707 7.68754C88.82 8.25699 88.5447 9.08337 88.5447 10.1667V15.7917H85.9635V4.66671H88.4208V6.10421C88.8476 5.59032 89.3845 5.20143 90.0315 4.93754C90.6785 4.67365 91.4081 4.54171 92.2203 4.54171Z" fill="#363636"/>
<path d="M111 0.333374V15.7917H108.522V14.3542C108.095 14.882 107.565 15.2778 106.932 15.5417C106.313 15.8056 105.624 15.9375 104.867 15.9375C103.807 15.9375 102.85 15.7014 101.997 15.2292C101.157 14.757 100.496 14.0903 100.015 13.2292C99.5327 12.3542 99.2918 11.3542 99.2918 10.2292C99.2918 9.10421 99.5327 8.11115 100.015 7.25004C100.496 6.38893 101.157 5.72226 101.997 5.25004C102.85 4.77782 103.807 4.54171 104.867 4.54171C105.597 4.54171 106.264 4.66671 106.87 4.91671C107.476 5.16671 107.992 5.54171 108.419 6.04171V0.333374H111ZM105.177 13.7084C105.796 13.7084 106.354 13.5695 106.849 13.2917C107.345 13 107.737 12.5903 108.026 12.0625C108.316 11.5348 108.46 10.9237 108.46 10.2292C108.46 9.53476 108.316 8.92365 108.026 8.39587C107.737 7.8681 107.345 7.46532 106.849 7.18754C106.354 6.89587 105.796 6.75004 105.177 6.75004C104.557 6.75004 104 6.89587 103.504 7.18754C103.009 7.46532 102.616 7.8681 102.327 8.39587C102.038 8.92365 101.894 9.53476 101.894 10.2292C101.894 10.9237 102.038 11.5348 102.327 12.0625C102.616 12.5903 103.009 13 103.504 13.2917C104 13.5695 104.557 13.7084 105.177 13.7084Z" fill="#363636"/>
</svg>
