<svg width="24" height="25" viewBox="0 0 24 25" fill="current" xmlns="http://www.w3.org/2000/svg">
<path fill-rule="evenodd" clip-rule="evenodd" d="M18.7071 6.04704C19.0976 6.43757 19.0976 7.07073 18.7071 7.46126L6.70711 19.4613C6.31658 19.8518 5.68342 19.8518 5.29289 19.4613C4.90237 19.0707 4.90237 18.4376 5.29289 18.047L17.2929 6.04704C17.6834 5.65652 18.3166 5.65652 18.7071 6.04704Z" fill="current"/>
<path fill-rule="evenodd" clip-rule="evenodd" d="M5.29289 6.04704C5.68342 5.65652 6.31658 5.65652 6.70711 6.04704L18.7071 18.047C19.0976 18.4376 19.0976 19.0707 18.7071 19.4613C18.3166 19.8518 17.6834 19.8518 17.2929 19.4613L5.29289 7.46126C4.90237 7.07073 4.90237 6.43757 5.29289 6.04704Z" fill="current"/>
</svg>
