<svg width="18" height="21" viewBox="0 0 18 21" fill="current" xmlns="http://www.w3.org/2000/svg">
<g filter="url(#filter0_d_287_144)">
<path fill-rule="evenodd" clip-rule="evenodd" d="M13.4716 3.52876C13.7319 3.78911 13.7319 4.21122 13.4716 4.47157L5.47157 12.4716C5.21122 12.7319 4.78911 12.7319 4.52876 12.4716C4.26841 12.2112 4.26841 11.7891 4.52876 11.5288L12.5288 3.52876C12.7891 3.26841 13.2112 3.26841 13.4716 3.52876Z" fill="url(#paint0_linear_287_144)"/>
<path fill-rule="evenodd" clip-rule="evenodd" d="M4.52876 3.52876C4.78911 3.26841 5.21122 3.26841 5.47157 3.52876L13.4716 11.5288C13.7319 11.7891 13.7319 12.2112 13.4716 12.4716C13.2112 12.7319 12.7891 12.7319 12.5288 12.4716L4.52876 4.47157C4.26841 4.21122 4.26841 3.78911 4.52876 3.52876Z" fill="url(#paint1_linear_287_144)"/>
</g>
<defs>
<filter id="filter0_d_287_144" x="-3" y="0" width="24" height="24" filterUnits="userSpaceOnUse" color-interpolation-filters="sRGB">
<feFlood flood-opacity="0" result="BackgroundImageFix"/>
<feColorMatrix in="SourceAlpha" type="matrix" values="0 0 0 0 0 0 0 0 0 0 0 0 0 0 0 0 0 0 127 0" result="hardAlpha"/>
<feOffset dy="4"/>
<feGaussianBlur stdDeviation="2"/>
<feComposite in2="hardAlpha" operator="out"/>
<feColorMatrix type="matrix" values="0 0 0 0 0 0 0 0 0 0 0 0 0 0 0 0 0 0 0.25 0"/>
<feBlend mode="normal" in2="BackgroundImageFix" result="effect1_dropShadow_287_144"/>
<feBlend mode="normal" in="SourceGraphic" in2="effect1_dropShadow_287_144" result="shape"/>
</filter>
<linearGradient id="paint0_linear_287_144" x1="8.83207" y1="-14.0207" x2="-27.2398" y2="14.5879" gradientUnits="userSpaceOnUse">
<stop stop-color="#F83600"/>
<stop offset="1" stop-color="#F9D423"/>
</linearGradient>
<linearGradient id="paint1_linear_287_144" x1="8.83207" y1="-14.0207" x2="-27.2398" y2="14.5879" gradientUnits="userSpaceOnUse">
<stop stop-color="#F83600"/>
<stop offset="1" stop-color="#F9D423"/>
</linearGradient>
</defs>
</svg>
